<svg width="48" height="48" viewBox="0 0 48 48" fill="none" xmlns="http://www.w3.org/2000/svg">
<path d="M47.7429 10.2829C47.579 8.66202 47.0982 7.08916 46.3279 5.65364C45.5294 4.15412 44.3783 2.87118 42.9739 1.91531C41.5694 0.89614 39.9279 0.252736 38.2049 0.0461448C36.4975 -0.113925 34.7769 0.143877 33.1914 0.797304C30.4952 1.99216 28.1058 3.78418 26.2038 6.03795C25.1084 7.26303 24.1096 8.5713 23.2167 9.95097L22.7101 9.21727C21.8548 8.18525 20.9203 7.22154 19.9151 6.33492C17.7914 4.33474 15.2228 2.86783 12.4209 2.05506C10.6735 1.5417 8.81061 1.57627 7.08337 2.1541C5.35613 2.73193 3.84749 3.82525 2.76068 5.28679C0.938805 7.83246 -0.0276633 10.8909 0.000602801 14.0212C0.0565117 19.6488 1.81001 25.1285 5.03162 29.7431C7.96834 34.1634 11.7938 37.9234 16.2641 40.7834C16.7499 41.0779 17.3285 41.1796 17.8857 41.0685C18.4428 40.9573 18.9381 40.6413 19.2737 40.1829C19.6093 39.7244 19.7609 39.1568 19.6985 38.5921C19.6361 38.0274 19.3644 37.5066 18.9368 37.1324V37.1324C15.3266 34.232 12.2471 30.727 9.83555 26.7734C7.50374 23.0356 6.21868 18.74 6.11469 14.3356C6.05951 12.4726 6.59114 10.6394 7.63448 9.09499C7.99869 8.53014 8.53522 8.09766 9.16452 7.86167C9.79383 7.62569 10.4824 7.59874 11.1282 7.78483C13.1239 8.33097 14.9934 9.26271 16.6309 10.5274C18.4678 11.8282 20.1654 13.3151 21.6969 14.9645V14.9645C21.8589 15.2111 22.0664 15.4245 22.3083 15.5934C22.5273 15.7371 22.7725 15.8361 23.0298 15.8849C23.2871 15.9337 23.5515 15.9313 23.8079 15.8777C24.0643 15.8242 24.3076 15.7206 24.5239 15.5729C24.7402 15.4252 24.9252 15.2362 25.0684 15.0169L25.2256 14.7724C26.5197 12.8028 28.0187 10.9759 29.6976 9.32209C31.2096 7.75552 33.0377 6.5288 35.0605 5.72351C35.8342 5.39249 36.6832 5.27777 37.517 5.39161C38.3508 5.50544 39.138 5.84356 39.7946 6.36986C40.5107 6.89689 41.1014 7.57586 41.5243 8.35809C41.9471 9.14032 42.1916 10.0064 42.2402 10.8943C42.3934 13.0837 42.1326 15.2824 41.4716 17.3752C40.8068 19.6604 39.9537 21.8866 38.9211 24.0308C36.8374 28.4042 34.2331 32.51 31.165 36.259V36.259C30.7834 36.7418 30.6008 37.3522 30.6548 37.9653C30.7087 38.5783 30.9951 39.1475 31.4551 39.5562C31.9152 39.9649 32.5142 40.1822 33.1293 40.1635C33.7444 40.1449 34.3291 39.8917 34.7636 39.4558C38.399 35.54 41.4523 31.1218 43.8299 26.3367C45.0701 23.929 46.0763 21.4077 46.8345 18.8077C47.6675 16.0478 47.9756 13.1563 47.7429 10.2829Z" fill="#D07CC6"/>
<path d="M25.8892 47.4915C25.4333 47.4896 24.9886 47.3495 24.614 47.0897L20.8233 44.5218C20.3229 44.1836 19.9774 43.6604 19.8627 43.0675C19.7481 42.4745 19.8736 41.8603 20.2119 41.3599C20.5501 40.8595 21.0732 40.514 21.6662 40.3994C22.2591 40.2847 22.8733 40.4103 23.3737 40.7485L25.6796 42.3032L27.4265 40.766C27.878 40.3627 28.4699 40.1532 29.0745 40.1826C29.6792 40.212 30.248 40.478 30.6582 40.9232C30.8617 41.1432 31.0192 41.4016 31.1216 41.6832C31.224 41.9648 31.2692 42.264 31.2546 42.5633C31.2399 42.8626 31.1657 43.156 31.0364 43.4263C30.907 43.6966 30.7249 43.9384 30.501 44.1375L27.4265 46.8975C27.0038 47.2767 26.457 47.488 25.8892 47.4915V47.4915Z" fill="#FF5F4E"/>
</svg>
